
          <svg data-logo="logo" xmlns="http://www.w3.org/2000/svg" viewBox="0 0 48 43">
            <g id="logogram" transform="translate(0, 1) rotate(0)"><path d="M22.8113 12.2665L31.5213 3.55647L34.4003 6.43546L26.3483 14.4875L38.4143 11.2545L39.4683 15.1875L28.4673 18.1355L40.5343 21.3685L39.4803 25.3015L28.5573 22.3745C28.6933 21.7845 28.7653 21.1705 28.7653 20.5395C28.7653 16.0415 25.1193 12.3955 20.6213 12.3955C16.1243 12.3955 12.4783 16.0415 12.4783 20.5395C12.4783 21.1745 12.5503 21.7925 12.6883 22.3865L0.669312 19.1655L1.72331 15.2325L12.7233 18.1805L3.89032 9.34747L6.76932 6.46846L14.8223 14.5205L11.5893 2.45546L15.5223 1.40146L18.5153 12.5685L21.8293 0.199463L25.7623 1.25346L22.8113 12.2665ZM37.3133 31.1875L34.4333 34.0665L26.5203 26.1535C27.4973 25.1275 28.2093 23.8465 28.5463 22.4205L37.3133 31.1875ZM29.6143 38.0795L25.6813 39.1335L22.8013 28.3875C24.2023 27.9995 25.4523 27.2455 26.4403 26.2355L29.6143 38.0795ZM19.5003 40.1995L15.5673 39.1455L18.4493 28.3895C19.1413 28.5805 19.8693 28.6825 20.6213 28.6825C21.3233 28.6825 22.0053 28.5935 22.6553 28.4265L19.5003 40.1995ZM9.68231 36.9785L6.80331 34.0995L14.7353 26.1665C15.7033 27.1795 16.9313 27.9425 18.3103 28.3505L9.68231 36.9785ZM2.78932 29.2795L1.73532 25.3465L12.6943 22.4105C13.0243 23.8145 13.7173 25.0775 14.6693 26.0965L2.78932 29.2795Z" fill="#F97316"/></g>
            <g id="logotype" transform="translate(47, 21.5)"><path fill="#121212" d=""/></g>
            
          </svg>
        